<?xml version="1.0" standalone="no"?>
<!DOCTYPE svg PUBLIC "-//W3C//DTD SVG 20010904//EN"
 "http://www.w3.org/TR/2001/REC-SVG-20010904/DTD/svg10.dtd">
<svg version="1.0" xmlns="http://www.w3.org/2000/svg"
 width="260.000000pt" height="260.000000pt" viewBox="0 0 260.000000 260.000000"
 preserveAspectRatio="xMidYMid meet">
<metadata>
Created by potrace 1.14, written by Peter Selinger 2001-2017
</metadata>
<g transform="translate(0.000000,260.000000) scale(0.100000,-0.100000)"
fill="#000000" stroke="none">
<path d="M0 1300 l0 -1300 1300 0 1300 0 0 1300 0 1300 -1300 0 -1300 0 0
-1300z m2374 749 c7 -29 0 -70 -34 -210 -23 -96 -57 -223 -75 -284 -18 -60
-60 -213 -94 -340 -75 -285 -168 -610 -182 -636 -9 -18 -21 -19 -237 -17
l-227 3 -15 30 c-8 17 -29 50 -46 75 -17 25 -49 80 -73 124 -23 43 -61 104
-84 135 -24 31 -59 77 -79 103 -19 25 -68 103 -108 172 -39 69 -75 126 -79
126 -8 0 -124 -460 -157 -620 -10 -47 -22 -91 -27 -98 -8 -9 -61 -12 -231 -10
l-221 3 -3 50 c-4 63 5 113 79 410 72 287 89 370 123 580 36 219 66 368 78
383 8 9 67 12 233 12 l223 0 75 -139 c42 -76 138 -239 215 -362 76 -123 158
-259 181 -301 23 -43 46 -78 51 -78 5 0 14 17 19 38 49 191 78 296 111 407 21
72 55 199 75 283 20 85 40 165 45 178 l10 24 222 -2 223 -3 9 -36z"/>
</g>
</svg>
